<svg width="203" height="48" viewBox="0 0 203 48" fill="none" xmlns="http://www.w3.org/2000/svg">
<path d="M20.3482 0.516V18H16.7722V7.944C16.7722 7.712 16.7762 7.46 16.7842 7.188C16.8002 6.916 16.8242 6.64 16.8562 6.36L12.2122 15.348C12.0682 15.628 11.8722 15.84 11.6242 15.984C11.3842 16.128 11.1082 16.2 10.7962 16.2H10.2442C9.93224 16.2 9.65224 16.128 9.40424 15.984C9.16424 15.84 8.97224 15.628 8.82824 15.348L4.18424 6.336C4.20824 6.624 4.22824 6.908 4.24424 7.188C4.26024 7.46 4.26824 7.712 4.26824 7.944V18H0.692244V0.516H3.78824C3.96424 0.516 4.11624 0.52 4.24424 0.527999C4.38024 0.535999 4.50024 0.559999 4.60424 0.599999C4.70824 0.639999 4.80024 0.704 4.88024 0.792C4.96824 0.872 5.05224 0.987999 5.13224 1.14L9.63224 10.008C9.79224 10.312 9.94424 10.628 10.0882 10.956C10.2402 11.284 10.3842 11.62 10.5202 11.964C10.6562 11.612 10.7962 11.268 10.9402 10.932C11.0922 10.596 11.2522 10.276 11.4202 9.972L15.9082 1.14C15.9882 0.987999 16.0682 0.872 16.1482 0.792C16.2362 0.704 16.3322 0.639999 16.4362 0.599999C16.5402 0.559999 16.6562 0.535999 16.7842 0.527999C16.9202 0.52 17.0762 0.516 17.2522 0.516H20.3482ZM32.9713 11.316L31.3513 6.528C31.2313 6.224 31.1033 5.868 30.9673 5.46C30.8313 5.044 30.6953 4.596 30.5593 4.116C30.4393 4.604 30.3113 5.056 30.1753 5.472C30.0393 5.888 29.9113 6.248 29.7913 6.552L28.1833 11.316H32.9713ZM39.4153 18H36.2713C35.9193 18 35.6353 17.92 35.4193 17.76C35.2033 17.592 35.0393 17.38 34.9273 17.124L33.8953 14.076H27.2473L26.2153 17.124C26.1273 17.348 25.9673 17.552 25.7353 17.736C25.5113 17.912 25.2313 18 24.8953 18H21.7273L28.4953 0.516H32.6473L39.4153 18ZM44.8498 7.596H45.4978C46.0978 7.596 46.5298 7.408 46.7938 7.032L50.7298 1.32C50.9618 1.016 51.2098 0.807999 51.4738 0.696C51.7458 0.576 52.0818 0.516 52.4818 0.516H56.0098L50.8258 7.584C50.4578 8.072 50.0618 8.424 49.6378 8.64C49.9418 8.752 50.2178 8.908 50.4658 9.108C50.7138 9.308 50.9458 9.568 51.1618 9.888L56.4418 18H52.8178C52.5858 18 52.3858 17.984 52.2178 17.952C52.0578 17.92 51.9178 17.872 51.7978 17.808C51.6778 17.744 51.5738 17.668 51.4858 17.58C51.3978 17.484 51.3138 17.376 51.2338 17.256L47.2738 11.172C47.1298 10.948 46.9458 10.792 46.7218 10.704C46.5058 10.608 46.2098 10.56 45.8338 10.56H44.8498V18H40.7938V0.516H44.8498V7.596ZM61.8191 3.636V7.716H67.3151V10.716H61.8191V14.88H68.9951V18H57.7391V0.516H68.9951V3.636H61.8191ZM82.0329 14.76V18H71.4969V0.516H75.5529V14.76H82.0329ZM88.1863 3.636V7.716H93.6823V10.716H88.1863V14.88H95.3623V18H84.1063V0.516H95.3623V3.636H88.1863ZM109.297 13.476C109.393 13.476 109.489 13.496 109.585 13.536C109.681 13.568 109.773 13.628 109.861 13.716L111.469 15.408C110.765 16.328 109.881 17.024 108.817 17.496C107.761 17.96 106.509 18.192 105.061 18.192C103.733 18.192 102.541 17.968 101.485 17.52C100.437 17.064 99.5446 16.44 98.8086 15.648C98.0806 14.848 97.5206 13.904 97.1286 12.816C96.7366 11.72 96.5406 10.532 96.5406 9.252C96.5406 7.948 96.7526 6.752 97.1766 5.664C97.6006 4.568 98.1966 3.624 98.9646 2.832C99.7326 2.04 100.653 1.424 101.725 0.983999C102.797 0.543999 103.977 0.323999 105.265 0.323999C105.921 0.323999 106.537 0.383999 107.113 0.503999C107.697 0.615999 108.241 0.775999 108.745 0.983999C109.249 1.184 109.713 1.428 110.137 1.716C110.561 2.004 110.937 2.316 111.265 2.652L109.897 4.488C109.809 4.6 109.705 4.704 109.585 4.8C109.465 4.888 109.297 4.932 109.081 4.932C108.937 4.932 108.801 4.9 108.673 4.836C108.545 4.772 108.409 4.696 108.265 4.608C108.121 4.512 107.961 4.412 107.785 4.308C107.617 4.196 107.413 4.096 107.173 4.008C106.941 3.912 106.665 3.832 106.345 3.768C106.033 3.704 105.665 3.672 105.241 3.672C104.569 3.672 103.953 3.796 103.393 4.044C102.841 4.292 102.361 4.656 101.953 5.136C101.553 5.608 101.241 6.192 101.017 6.888C100.801 7.576 100.693 8.364 100.693 9.252C100.693 10.148 100.813 10.944 101.053 11.64C101.301 12.336 101.633 12.924 102.049 13.404C102.473 13.876 102.965 14.236 103.525 14.484C104.085 14.732 104.685 14.856 105.325 14.856C105.693 14.856 106.029 14.84 106.333 14.808C106.637 14.768 106.921 14.708 107.185 14.628C107.449 14.54 107.697 14.428 107.929 14.292C108.161 14.148 108.397 13.968 108.637 13.752C108.733 13.672 108.837 13.608 108.949 13.56C109.061 13.504 109.177 13.476 109.297 13.476ZM125.803 3.732H120.883V18H116.827V3.732H111.907V0.516H125.803V3.732ZM133.552 8.736C134.104 8.736 134.572 8.668 134.956 8.532C135.348 8.388 135.668 8.192 135.916 7.944C136.164 7.696 136.344 7.408 136.456 7.08C136.568 6.744 136.624 6.384 136.624 6C136.624 5.232 136.372 4.632 135.868 4.2C135.372 3.768 134.6 3.552 133.552 3.552H131.92V8.736H133.552ZM142.168 18H138.496C137.816 18 137.328 17.744 137.032 17.232L134.128 12.156C133.992 11.94 133.84 11.784 133.672 11.688C133.504 11.584 133.264 11.532 132.952 11.532H131.92V18H127.864V0.516H133.552C134.816 0.516 135.892 0.648 136.78 0.912C137.676 1.168 138.404 1.528 138.964 1.992C139.532 2.456 139.944 3.004 140.2 3.636C140.456 4.268 140.584 4.956 140.584 5.7C140.584 6.268 140.508 6.804 140.356 7.308C140.204 7.812 139.98 8.28 139.684 8.712C139.388 9.136 139.02 9.516 138.58 9.852C138.148 10.188 137.648 10.464 137.08 10.68C137.344 10.816 137.592 10.988 137.824 11.196C138.056 11.396 138.264 11.636 138.448 11.916L142.168 18ZM160.493 9.252C160.493 10.516 160.273 11.692 159.833 12.78C159.401 13.868 158.789 14.816 157.997 15.624C157.205 16.424 156.249 17.052 155.129 17.508C154.017 17.964 152.781 18.192 151.421 18.192C150.061 18.192 148.821 17.964 147.701 17.508C146.581 17.052 145.621 16.424 144.821 15.624C144.029 14.816 143.413 13.868 142.973 12.78C142.541 11.692 142.325 10.516 142.325 9.252C142.325 7.988 142.541 6.812 142.973 5.724C143.413 4.636 144.029 3.692 144.821 2.892C145.621 2.092 146.581 1.464 147.701 1.008C148.821 0.552 150.061 0.323999 151.421 0.323999C152.781 0.323999 154.017 0.555999 155.129 1.02C156.249 1.476 157.205 2.104 157.997 2.904C158.789 3.704 159.401 4.648 159.833 5.736C160.273 6.824 160.493 7.996 160.493 9.252ZM156.341 9.252C156.341 8.388 156.229 7.612 156.005 6.924C155.781 6.228 155.457 5.64 155.033 5.16C154.617 4.68 154.105 4.312 153.497 4.056C152.889 3.8 152.197 3.672 151.421 3.672C150.637 3.672 149.937 3.8 149.321 4.056C148.713 4.312 148.197 4.68 147.773 5.16C147.357 5.64 147.037 6.228 146.813 6.924C146.589 7.612 146.477 8.388 146.477 9.252C146.477 10.124 146.589 10.908 146.813 11.604C147.037 12.292 147.357 12.876 147.773 13.356C148.197 13.836 148.713 14.204 149.321 14.46C149.937 14.708 150.637 14.832 151.421 14.832C152.197 14.832 152.889 14.708 153.497 14.46C154.105 14.204 154.617 13.836 155.033 13.356C155.457 12.876 155.781 12.292 156.005 11.604C156.229 10.908 156.341 10.124 156.341 9.252ZM178.144 0.516V18H176.032C175.72 18 175.456 17.952 175.24 17.856C175.032 17.752 174.824 17.576 174.616 17.328L166.372 6.9C166.404 7.212 166.424 7.516 166.432 7.812C166.448 8.1 166.456 8.372 166.456 8.628V18H162.88V0.516H165.016C165.192 0.516 165.34 0.524 165.46 0.539999C165.58 0.555999 165.688 0.587999 165.784 0.636C165.88 0.676 165.972 0.736 166.06 0.816C166.148 0.895999 166.248 1.004 166.36 1.14L174.676 11.64C174.636 11.304 174.608 10.98 174.592 10.668C174.576 10.348 174.568 10.048 174.568 9.768V0.516H178.144ZM185.616 18H181.536V0.516H185.616V18ZM200.773 13.476C200.869 13.476 200.965 13.496 201.061 13.536C201.157 13.568 201.249 13.628 201.337 13.716L202.945 15.408C202.241 16.328 201.357 17.024 200.293 17.496C199.237 17.96 197.985 18.192 196.537 18.192C195.209 18.192 194.017 17.968 192.961 17.52C191.913 17.064 191.021 16.44 190.285 15.648C189.557 14.848 188.997 13.904 188.605 12.816C188.213 11.72 188.017 10.532 188.017 9.252C188.017 7.948 188.229 6.752 188.653 5.664C189.077 4.568 189.673 3.624 190.441 2.832C191.209 2.04 192.129 1.424 193.201 0.983999C194.273 0.543999 195.453 0.323999 196.741 0.323999C197.397 0.323999 198.013 0.383999 198.589 0.503999C199.173 0.615999 199.717 0.775999 200.221 0.983999C200.725 1.184 201.189 1.428 201.613 1.716C202.037 2.004 202.413 2.316 202.741 2.652L201.373 4.488C201.285 4.6 201.181 4.704 201.061 4.8C200.941 4.888 200.773 4.932 200.557 4.932C200.413 4.932 200.277 4.9 200.149 4.836C200.021 4.772 199.885 4.696 199.741 4.608C199.597 4.512 199.437 4.412 199.261 4.308C199.093 4.196 198.889 4.096 198.649 4.008C198.417 3.912 198.141 3.832 197.821 3.768C197.509 3.704 197.141 3.672 196.717 3.672C196.045 3.672 195.429 3.796 194.869 4.044C194.317 4.292 193.837 4.656 193.429 5.136C193.029 5.608 192.717 6.192 192.493 6.888C192.277 7.576 192.169 8.364 192.169 9.252C192.169 10.148 192.289 10.944 192.529 11.64C192.777 12.336 193.109 12.924 193.525 13.404C193.949 13.876 194.441 14.236 195.001 14.484C195.561 14.732 196.161 14.856 196.801 14.856C197.169 14.856 197.505 14.84 197.809 14.808C198.113 14.768 198.397 14.708 198.661 14.628C198.925 14.54 199.173 14.428 199.405 14.292C199.637 14.148 199.873 13.968 200.113 13.752C200.209 13.672 200.313 13.608 200.425 13.56C200.537 13.504 200.653 13.476 200.773 13.476ZM9.75224 32.084C9.68024 32.22 9.57624 32.288 9.44024 32.288C9.33624 32.288 9.20024 32.216 9.03224 32.072C8.87224 31.92 8.65224 31.756 8.37224 31.58C8.09224 31.396 7.74024 31.228 7.31624 31.076C6.90024 30.924 6.38424 30.848 5.76824 30.848C5.15224 30.848 4.60824 30.936 4.13624 31.112C3.67224 31.288 3.28024 31.528 2.96024 31.832C2.64824 32.136 2.40824 32.488 2.24024 32.888C2.08024 33.288 2.00024 33.708 2.00024 34.148C2.00024 34.724 2.12024 35.2 2.36024 35.576C2.60824 35.952 2.93224 36.272 3.33224 36.536C3.73224 36.8 4.18424 37.024 4.68824 37.208C5.20024 37.384 5.72424 37.56 6.26024 37.736C6.79624 37.912 7.31624 38.108 7.82024 38.324C8.33224 38.532 8.78824 38.796 9.18824 39.116C9.58824 39.436 9.90824 39.832 10.1482 40.304C10.3962 40.768 10.5202 41.348 10.5202 42.044C10.5202 42.756 10.3962 43.428 10.1482 44.06C9.90824 44.684 9.55624 45.228 9.09224 45.692C8.62824 46.156 8.06024 46.524 7.38824 46.796C6.71624 47.06 5.94824 47.192 5.08424 47.192C3.96424 47.192 3.00024 46.996 2.19224 46.604C1.38424 46.204 0.676244 45.66 0.0682442 44.972L0.404244 44.444C0.500244 44.324 0.612244 44.264 0.740244 44.264C0.812244 44.264 0.904244 44.312 1.01624 44.408C1.12824 44.504 1.26424 44.624 1.42424 44.768C1.58424 44.904 1.77624 45.056 2.00024 45.224C2.22424 45.384 2.48424 45.536 2.78024 45.68C3.07624 45.816 3.41624 45.932 3.80024 46.028C4.18424 46.124 4.62024 46.172 5.10824 46.172C5.78024 46.172 6.38024 46.072 6.90824 45.872C7.43624 45.664 7.88024 45.384 8.24024 45.032C8.60824 44.68 8.88824 44.264 9.08024 43.784C9.27224 43.296 9.36824 42.776 9.36824 42.224C9.36824 41.624 9.24424 41.132 8.99624 40.748C8.75624 40.356 8.43624 40.032 8.03624 39.776C7.63624 39.512 7.18024 39.292 6.66824 39.116C6.16424 38.94 5.64424 38.768 5.10824 38.6C4.57224 38.432 4.04824 38.244 3.53624 38.036C3.03224 37.828 2.58024 37.564 2.18024 37.244C1.78024 36.916 1.45624 36.512 1.20824 36.032C0.968244 35.544 0.848244 34.936 0.848244 34.208C0.848244 33.64 0.956244 33.092 1.17224 32.564C1.38824 32.036 1.70424 31.572 2.12024 31.172C2.53624 30.764 3.04824 30.44 3.65624 30.2C4.27224 29.952 4.97224 29.828 5.75624 29.828C6.63624 29.828 7.42424 29.968 8.12024 30.248C8.82424 30.528 9.46424 30.956 10.0402 31.532L9.75224 32.084ZM15.588 47H14.352V30.02H15.588V47ZM33.7138 30.02V47H33.1378C33.0338 47 32.9458 46.984 32.8738 46.952C32.8098 46.912 32.7458 46.848 32.6818 46.76L21.6538 32.024C21.6778 32.264 21.6898 32.492 21.6898 32.708V47H20.6098V30.02H21.2218C21.3338 30.02 21.4178 30.036 21.4738 30.068C21.5378 30.092 21.6058 30.152 21.6778 30.248L32.6818 44.948C32.6578 44.708 32.6458 44.48 32.6458 44.264V30.02H33.7138ZM52.287 39.296V45.332C51.439 45.932 50.535 46.392 49.575 46.712C48.615 47.032 47.535 47.192 46.335 47.192C44.991 47.192 43.783 46.988 42.711 46.58C41.639 46.164 40.723 45.58 39.963 44.828C39.211 44.068 38.631 43.152 38.223 42.08C37.823 41.008 37.623 39.816 37.623 38.504C37.623 37.192 37.819 36.004 38.211 34.94C38.611 33.868 39.179 32.956 39.915 32.204C40.659 31.444 41.555 30.86 42.603 30.452C43.651 30.036 44.831 29.828 46.143 29.828C46.791 29.828 47.387 29.872 47.931 29.96C48.483 30.048 48.995 30.18 49.467 30.356C49.939 30.524 50.379 30.736 50.787 30.992C51.195 31.24 51.587 31.528 51.963 31.856L51.627 32.384C51.515 32.576 51.347 32.62 51.123 32.516C51.003 32.468 50.831 32.356 50.607 32.18C50.383 32.004 50.075 31.82 49.683 31.628C49.291 31.436 48.803 31.264 48.219 31.112C47.643 30.96 46.939 30.884 46.107 30.884C45.003 30.884 44.003 31.06 43.107 31.412C42.219 31.764 41.459 32.268 40.827 32.924C40.203 33.58 39.719 34.38 39.375 35.324C39.039 36.268 38.871 37.328 38.871 38.504C38.871 39.696 39.039 40.768 39.375 41.72C39.719 42.672 40.211 43.48 40.851 44.144C41.499 44.808 42.283 45.316 43.203 45.668C44.123 46.02 45.159 46.196 46.311 46.196C46.815 46.196 47.279 46.164 47.703 46.1C48.135 46.036 48.543 45.948 48.927 45.836C49.319 45.716 49.695 45.572 50.055 45.404C50.423 45.228 50.795 45.032 51.171 44.816V40.244H47.919C47.831 40.244 47.755 40.216 47.691 40.16C47.635 40.104 47.607 40.04 47.607 39.968V39.296H52.287ZM65.4611 40.832L62.0051 32.252C61.8851 31.972 61.7691 31.636 61.6571 31.244C61.6091 31.436 61.5571 31.62 61.5011 31.796C61.4451 31.964 61.3851 32.12 61.3211 32.264L57.8651 40.832H65.4611ZM69.2171 47H68.2691C68.1571 47 68.0651 46.972 67.9931 46.916C67.9211 46.852 67.8651 46.772 67.8251 46.676L65.8331 41.744H57.4931L55.5011 46.676C55.4691 46.764 55.4131 46.84 55.3331 46.904C55.2531 46.968 55.1571 47 55.0451 47H54.1091L61.0571 30.02H62.2691L69.2171 47ZM76.4237 39.176C77.1677 39.176 77.8357 39.072 78.4277 38.864C79.0197 38.656 79.5197 38.368 79.9277 38C80.3437 37.632 80.6597 37.2 80.8757 36.704C81.0997 36.2 81.2117 35.652 81.2117 35.06C81.2117 33.756 80.8117 32.752 80.0117 32.048C79.2117 31.344 78.0157 30.992 76.4237 30.992H73.2677V39.176H76.4237ZM76.4237 30.02C78.4157 30.02 79.9157 30.456 80.9237 31.328C81.9397 32.2 82.4477 33.444 82.4477 35.06C82.4477 35.804 82.3077 36.488 82.0277 37.112C81.7477 37.736 81.3477 38.276 80.8277 38.732C80.3077 39.18 79.6757 39.532 78.9317 39.788C78.1877 40.036 77.3517 40.16 76.4237 40.16H73.2677V47H72.0317V30.02H76.4237ZM100.991 38.504C100.991 39.816 100.795 41.008 100.403 42.08C100.011 43.144 99.4587 44.056 98.7467 44.816C98.0347 45.568 97.1787 46.152 96.1787 46.568C95.1867 46.976 94.0907 47.18 92.8907 47.18C91.6907 47.18 90.5947 46.976 89.6027 46.568C88.6107 46.152 87.7587 45.568 87.0467 44.816C86.3347 44.056 85.7827 43.144 85.3907 42.08C84.9987 41.008 84.8027 39.816 84.8027 38.504C84.8027 37.2 84.9987 36.016 85.3907 34.952C85.7827 33.88 86.3347 32.968 87.0467 32.216C87.7587 31.456 88.6107 30.868 89.6027 30.452C90.5947 30.036 91.6907 29.828 92.8907 29.828C94.0907 29.828 95.1867 30.036 96.1787 30.452C97.1787 30.86 98.0347 31.444 98.7467 32.204C99.4587 32.964 100.011 33.88 100.403 34.952C100.795 36.016 100.991 37.2 100.991 38.504ZM99.7187 38.504C99.7187 37.32 99.5547 36.256 99.2267 35.312C98.8987 34.368 98.4347 33.568 97.8347 32.912C97.2347 32.256 96.5147 31.756 95.6747 31.412C94.8347 31.06 93.9067 30.884 92.8907 30.884C91.8827 30.884 90.9587 31.06 90.1187 31.412C89.2787 31.756 88.5547 32.256 87.9467 32.912C87.3467 33.568 86.8787 34.368 86.5427 35.312C86.2147 36.256 86.0507 37.32 86.0507 38.504C86.0507 39.696 86.2147 40.764 86.5427 41.708C86.8787 42.644 87.3467 43.44 87.9467 44.096C88.5547 44.752 89.2787 45.252 90.1187 45.596C90.9587 45.94 91.8827 46.112 92.8907 46.112C93.9067 46.112 94.8347 45.94 95.6747 45.596C96.5147 45.252 97.2347 44.752 97.8347 44.096C98.4347 43.44 98.8987 42.644 99.2267 41.708C99.5547 40.764 99.7187 39.696 99.7187 38.504ZM109.067 38.408C109.819 38.408 110.491 38.32 111.083 38.144C111.683 37.96 112.187 37.7 112.595 37.364C113.011 37.028 113.327 36.624 113.543 36.152C113.759 35.68 113.867 35.148 113.867 34.556C113.867 33.348 113.471 32.452 112.679 31.868C111.895 31.284 110.747 30.992 109.235 30.992H106.127V38.408H109.067ZM116.603 47H115.547C115.411 47 115.295 46.98 115.199 46.94C115.111 46.892 115.027 46.808 114.947 46.688L109.499 39.8C109.435 39.712 109.367 39.636 109.295 39.572C109.231 39.508 109.155 39.46 109.067 39.428C108.987 39.388 108.887 39.36 108.767 39.344C108.655 39.328 108.515 39.32 108.347 39.32H106.127V47H104.891V30.02H109.235C111.187 30.02 112.647 30.4 113.615 31.16C114.591 31.912 115.079 33.02 115.079 34.484C115.079 35.132 114.967 35.724 114.743 36.26C114.519 36.796 114.195 37.268 113.771 37.676C113.355 38.076 112.847 38.404 112.247 38.66C111.655 38.916 110.987 39.088 110.243 39.176C110.435 39.296 110.607 39.456 110.759 39.656L116.603 47ZM129.669 45.98L129.645 47H119.469V30.02H129.645V31.04H120.705V37.904H128.145V38.9H120.705V45.98H129.669Z" fill="#F3F4F5"/>
</svg>
