<svg width="268" height="55" viewBox="0 0 268 55" fill="none" xmlns="http://www.w3.org/2000/svg">
<path d="M21.348 6.516V24H17.772V13.944C17.772 13.712 17.776 13.46 17.784 13.188C17.8 12.916 17.824 12.64 17.856 12.36L13.212 21.348C13.068 21.628 12.872 21.84 12.624 21.984C12.384 22.128 12.108 22.2 11.796 22.2H11.244C10.932 22.2 10.652 22.128 10.404 21.984C10.164 21.84 9.972 21.628 9.828 21.348L5.184 12.336C5.208 12.624 5.228 12.908 5.244 13.188C5.26 13.46 5.268 13.712 5.268 13.944V24H1.692V6.516H4.788C4.964 6.516 5.116 6.52 5.244 6.528C5.38 6.536 5.5 6.56 5.604 6.6C5.708 6.64 5.8 6.704 5.88 6.792C5.968 6.872 6.052 6.988 6.132 7.14L10.632 16.008C10.792 16.312 10.944 16.628 11.088 16.956C11.24 17.284 11.384 17.62 11.52 17.964C11.656 17.612 11.796 17.268 11.94 16.932C12.092 16.596 12.252 16.276 12.42 15.972L16.908 7.14C16.988 6.988 17.068 6.872 17.148 6.792C17.236 6.704 17.332 6.64 17.436 6.6C17.54 6.56 17.656 6.536 17.784 6.528C17.92 6.52 18.076 6.516 18.252 6.516H21.348ZM33.9711 17.316L32.3511 12.528C32.2311 12.224 32.1031 11.868 31.9671 11.46C31.8311 11.044 31.6951 10.596 31.5591 10.116C31.4391 10.604 31.3111 11.056 31.1751 11.472C31.0391 11.888 30.9111 12.248 30.7911 12.552L29.1831 17.316H33.9711ZM40.4151 24H37.2711C36.9191 24 36.6351 23.92 36.4191 23.76C36.2031 23.592 36.0391 23.38 35.9271 23.124L34.8951 20.076H28.2471L27.2151 23.124C27.1271 23.348 26.9671 23.552 26.7351 23.736C26.5111 23.912 26.2311 24 25.8951 24H22.7271L29.4951 6.516H33.6471L40.4151 24ZM45.8496 13.596H46.4976C47.0976 13.596 47.5296 13.408 47.7936 13.032L51.7296 7.32C51.9616 7.016 52.2096 6.808 52.4736 6.696C52.7456 6.576 53.0816 6.516 53.4816 6.516H57.0096L51.8256 13.584C51.4576 14.072 51.0616 14.424 50.6376 14.64C50.9416 14.752 51.2176 14.908 51.4656 15.108C51.7136 15.308 51.9456 15.568 52.1616 15.888L57.4416 24H53.8176C53.5856 24 53.3856 23.984 53.2176 23.952C53.0576 23.92 52.9176 23.872 52.7976 23.808C52.6776 23.744 52.5736 23.668 52.4856 23.58C52.3976 23.484 52.3136 23.376 52.2336 23.256L48.2736 17.172C48.1296 16.948 47.9456 16.792 47.7216 16.704C47.5056 16.608 47.2096 16.56 46.8336 16.56H45.8496V24H41.7936V6.516H45.8496V13.596ZM62.8189 9.636V13.716H68.3149V16.716H62.8189V20.88H69.9949V24H58.7389V6.516H69.9949V9.636H62.8189ZM83.0327 20.76V24H72.4967V6.516H76.5527V20.76H83.0327ZM89.1861 9.636V13.716H94.6821V16.716H89.1861V20.88H96.3621V24H85.1061V6.516H96.3621V9.636H89.1861ZM110.296 19.476C110.392 19.476 110.488 19.496 110.584 19.536C110.68 19.568 110.772 19.628 110.86 19.716L112.468 21.408C111.764 22.328 110.88 23.024 109.816 23.496C108.76 23.96 107.508 24.192 106.06 24.192C104.732 24.192 103.54 23.968 102.484 23.52C101.436 23.064 100.544 22.44 99.8083 21.648C99.0803 20.848 98.5203 19.904 98.1283 18.816C97.7363 17.72 97.5403 16.532 97.5403 15.252C97.5403 13.948 97.7523 12.752 98.1763 11.664C98.6003 10.568 99.1963 9.624 99.9643 8.832C100.732 8.04 101.652 7.424 102.724 6.984C103.796 6.544 104.976 6.324 106.264 6.324C106.92 6.324 107.536 6.384 108.112 6.504C108.696 6.616 109.24 6.776 109.744 6.984C110.248 7.184 110.712 7.428 111.136 7.716C111.56 8.004 111.936 8.316 112.264 8.652L110.896 10.488C110.808 10.6 110.704 10.704 110.584 10.8C110.464 10.888 110.296 10.932 110.08 10.932C109.936 10.932 109.8 10.9 109.672 10.836C109.544 10.772 109.408 10.696 109.264 10.608C109.12 10.512 108.96 10.412 108.784 10.308C108.616 10.196 108.412 10.096 108.172 10.008C107.94 9.912 107.664 9.832 107.344 9.768C107.032 9.704 106.664 9.672 106.24 9.672C105.568 9.672 104.952 9.796 104.392 10.044C103.84 10.292 103.36 10.656 102.952 11.136C102.552 11.608 102.24 12.192 102.016 12.888C101.8 13.576 101.692 14.364 101.692 15.252C101.692 16.148 101.812 16.944 102.052 17.64C102.3 18.336 102.632 18.924 103.048 19.404C103.472 19.876 103.964 20.236 104.524 20.484C105.084 20.732 105.684 20.856 106.324 20.856C106.692 20.856 107.028 20.84 107.332 20.808C107.636 20.768 107.92 20.708 108.184 20.628C108.448 20.54 108.696 20.428 108.928 20.292C109.16 20.148 109.396 19.968 109.636 19.752C109.732 19.672 109.836 19.608 109.948 19.56C110.06 19.504 110.176 19.476 110.296 19.476ZM126.803 9.732H121.883V24H117.827V9.732H112.907V6.516H126.803V9.732ZM134.552 14.736C135.104 14.736 135.572 14.668 135.956 14.532C136.348 14.388 136.668 14.192 136.916 13.944C137.164 13.696 137.344 13.408 137.456 13.08C137.568 12.744 137.624 12.384 137.624 12C137.624 11.232 137.372 10.632 136.868 10.2C136.372 9.768 135.6 9.552 134.552 9.552H132.92V14.736H134.552ZM143.168 24H139.496C138.816 24 138.328 23.744 138.032 23.232L135.128 18.156C134.992 17.94 134.84 17.784 134.672 17.688C134.504 17.584 134.264 17.532 133.952 17.532H132.92V24H128.864V6.516H134.552C135.816 6.516 136.892 6.648 137.78 6.912C138.676 7.168 139.404 7.528 139.964 7.992C140.532 8.456 140.944 9.004 141.2 9.636C141.456 10.268 141.584 10.956 141.584 11.7C141.584 12.268 141.508 12.804 141.356 13.308C141.204 13.812 140.98 14.28 140.684 14.712C140.388 15.136 140.02 15.516 139.58 15.852C139.148 16.188 138.648 16.464 138.08 16.68C138.344 16.816 138.592 16.988 138.824 17.196C139.056 17.396 139.264 17.636 139.448 17.916L143.168 24ZM161.493 15.252C161.493 16.516 161.273 17.692 160.833 18.78C160.401 19.868 159.789 20.816 158.997 21.624C158.205 22.424 157.249 23.052 156.129 23.508C155.017 23.964 153.781 24.192 152.421 24.192C151.061 24.192 149.821 23.964 148.701 23.508C147.581 23.052 146.621 22.424 145.821 21.624C145.029 20.816 144.413 19.868 143.973 18.78C143.541 17.692 143.325 16.516 143.325 15.252C143.325 13.988 143.541 12.812 143.973 11.724C144.413 10.636 145.029 9.692 145.821 8.892C146.621 8.092 147.581 7.464 148.701 7.008C149.821 6.552 151.061 6.324 152.421 6.324C153.781 6.324 155.017 6.556 156.129 7.02C157.249 7.476 158.205 8.104 158.997 8.904C159.789 9.704 160.401 10.648 160.833 11.736C161.273 12.824 161.493 13.996 161.493 15.252ZM157.341 15.252C157.341 14.388 157.229 13.612 157.005 12.924C156.781 12.228 156.457 11.64 156.033 11.16C155.617 10.68 155.105 10.312 154.497 10.056C153.889 9.8 153.197 9.672 152.421 9.672C151.637 9.672 150.937 9.8 150.321 10.056C149.713 10.312 149.197 10.68 148.773 11.16C148.357 11.64 148.037 12.228 147.813 12.924C147.589 13.612 147.477 14.388 147.477 15.252C147.477 16.124 147.589 16.908 147.813 17.604C148.037 18.292 148.357 18.876 148.773 19.356C149.197 19.836 149.713 20.204 150.321 20.46C150.937 20.708 151.637 20.832 152.421 20.832C153.197 20.832 153.889 20.708 154.497 20.46C155.105 20.204 155.617 19.836 156.033 19.356C156.457 18.876 156.781 18.292 157.005 17.604C157.229 16.908 157.341 16.124 157.341 15.252ZM179.144 6.516V24H177.032C176.72 24 176.456 23.952 176.24 23.856C176.032 23.752 175.824 23.576 175.616 23.328L167.372 12.9C167.404 13.212 167.424 13.516 167.432 13.812C167.448 14.1 167.456 14.372 167.456 14.628V24H163.88V6.516H166.016C166.192 6.516 166.34 6.524 166.46 6.54C166.58 6.556 166.688 6.588 166.784 6.636C166.88 6.676 166.972 6.736 167.06 6.816C167.148 6.896 167.248 7.004 167.36 7.14L175.676 17.64C175.636 17.304 175.608 16.98 175.592 16.668C175.576 16.348 175.568 16.048 175.568 15.768V6.516H179.144ZM186.616 24H182.536V6.516H186.616V24ZM201.773 19.476C201.869 19.476 201.965 19.496 202.061 19.536C202.157 19.568 202.249 19.628 202.337 19.716L203.945 21.408C203.241 22.328 202.357 23.024 201.293 23.496C200.237 23.96 198.985 24.192 197.537 24.192C196.209 24.192 195.017 23.968 193.961 23.52C192.913 23.064 192.021 22.44 191.285 21.648C190.557 20.848 189.997 19.904 189.605 18.816C189.213 17.72 189.017 16.532 189.017 15.252C189.017 13.948 189.229 12.752 189.653 11.664C190.077 10.568 190.673 9.624 191.441 8.832C192.209 8.04 193.129 7.424 194.201 6.984C195.273 6.544 196.453 6.324 197.741 6.324C198.397 6.324 199.013 6.384 199.589 6.504C200.173 6.616 200.717 6.776 201.221 6.984C201.725 7.184 202.189 7.428 202.613 7.716C203.037 8.004 203.413 8.316 203.741 8.652L202.373 10.488C202.285 10.6 202.181 10.704 202.061 10.8C201.941 10.888 201.773 10.932 201.557 10.932C201.413 10.932 201.277 10.9 201.149 10.836C201.021 10.772 200.885 10.696 200.741 10.608C200.597 10.512 200.437 10.412 200.261 10.308C200.093 10.196 199.889 10.096 199.649 10.008C199.417 9.912 199.141 9.832 198.821 9.768C198.509 9.704 198.141 9.672 197.717 9.672C197.045 9.672 196.429 9.796 195.869 10.044C195.317 10.292 194.837 10.656 194.429 11.136C194.029 11.608 193.717 12.192 193.493 12.888C193.277 13.576 193.169 14.364 193.169 15.252C193.169 16.148 193.289 16.944 193.529 17.64C193.777 18.336 194.109 18.924 194.525 19.404C194.949 19.876 195.441 20.236 196.001 20.484C196.561 20.732 197.161 20.856 197.801 20.856C198.169 20.856 198.505 20.84 198.809 20.808C199.113 20.768 199.397 20.708 199.661 20.628C199.925 20.54 200.173 20.428 200.405 20.292C200.637 20.148 200.873 19.968 201.113 19.752C201.209 19.672 201.313 19.608 201.425 19.56C201.537 19.504 201.653 19.476 201.773 19.476ZM10.752 38.084C10.68 38.22 10.576 38.288 10.44 38.288C10.336 38.288 10.2 38.216 10.032 38.072C9.872 37.92 9.652 37.756 9.372 37.58C9.092 37.396 8.74 37.228 8.316 37.076C7.9 36.924 7.384 36.848 6.768 36.848C6.152 36.848 5.608 36.936 5.136 37.112C4.672 37.288 4.28 37.528 3.96 37.832C3.648 38.136 3.408 38.488 3.24 38.888C3.08 39.288 3 39.708 3 40.148C3 40.724 3.12 41.2 3.36 41.576C3.608 41.952 3.932 42.272 4.332 42.536C4.732 42.8 5.184 43.024 5.688 43.208C6.2 43.384 6.724 43.56 7.26 43.736C7.796 43.912 8.316 44.108 8.82 44.324C9.332 44.532 9.788 44.796 10.188 45.116C10.588 45.436 10.908 45.832 11.148 46.304C11.396 46.768 11.52 47.348 11.52 48.044C11.52 48.756 11.396 49.428 11.148 50.06C10.908 50.684 10.556 51.228 10.092 51.692C9.628 52.156 9.06 52.524 8.388 52.796C7.716 53.06 6.948 53.192 6.084 53.192C4.964 53.192 4 52.996 3.192 52.604C2.384 52.204 1.676 51.66 1.068 50.972L1.404 50.444C1.5 50.324 1.612 50.264 1.74 50.264C1.812 50.264 1.904 50.312 2.016 50.408C2.128 50.504 2.264 50.624 2.424 50.768C2.584 50.904 2.776 51.056 3 51.224C3.224 51.384 3.484 51.536 3.78 51.68C4.076 51.816 4.416 51.932 4.8 52.028C5.184 52.124 5.62 52.172 6.108 52.172C6.78 52.172 7.38 52.072 7.908 51.872C8.436 51.664 8.88 51.384 9.24 51.032C9.608 50.68 9.888 50.264 10.08 49.784C10.272 49.296 10.368 48.776 10.368 48.224C10.368 47.624 10.244 47.132 9.996 46.748C9.756 46.356 9.436 46.032 9.036 45.776C8.636 45.512 8.18 45.292 7.668 45.116C7.164 44.94 6.644 44.768 6.108 44.6C5.572 44.432 5.048 44.244 4.536 44.036C4.032 43.828 3.58 43.564 3.18 43.244C2.78 42.916 2.456 42.512 2.208 42.032C1.968 41.544 1.848 40.936 1.848 40.208C1.848 39.64 1.956 39.092 2.172 38.564C2.388 38.036 2.704 37.572 3.12 37.172C3.536 36.764 4.048 36.44 4.656 36.2C5.272 35.952 5.972 35.828 6.756 35.828C7.636 35.828 8.424 35.968 9.12 36.248C9.824 36.528 10.464 36.956 11.04 37.532L10.752 38.084ZM16.5878 53H15.3518V36.02H16.5878V53ZM34.7136 36.02V53H34.1376C34.0336 53 33.9456 52.984 33.8736 52.952C33.8096 52.912 33.7456 52.848 33.6816 52.76L22.6536 38.024C22.6776 38.264 22.6896 38.492 22.6896 38.708V53H21.6096V36.02H22.2216C22.3336 36.02 22.4176 36.036 22.4736 36.068C22.5376 36.092 22.6056 36.152 22.6776 36.248L33.6816 50.948C33.6576 50.708 33.6456 50.48 33.6456 50.264V36.02H34.7136ZM53.2868 45.296V51.332C52.4388 51.932 51.5348 52.392 50.5748 52.712C49.6148 53.032 48.5348 53.192 47.3348 53.192C45.9908 53.192 44.7828 52.988 43.7108 52.58C42.6388 52.164 41.7228 51.58 40.9628 50.828C40.2108 50.068 39.6308 49.152 39.2228 48.08C38.8228 47.008 38.6228 45.816 38.6228 44.504C38.6228 43.192 38.8188 42.004 39.2108 40.94C39.6108 39.868 40.1788 38.956 40.9148 38.204C41.6588 37.444 42.5548 36.86 43.6028 36.452C44.6508 36.036 45.8308 35.828 47.1428 35.828C47.7908 35.828 48.3868 35.872 48.9308 35.96C49.4828 36.048 49.9948 36.18 50.4668 36.356C50.9388 36.524 51.3788 36.736 51.7868 36.992C52.1948 37.24 52.5868 37.528 52.9628 37.856L52.6268 38.384C52.5148 38.576 52.3468 38.62 52.1228 38.516C52.0028 38.468 51.8308 38.356 51.6068 38.18C51.3828 38.004 51.0748 37.82 50.6828 37.628C50.2908 37.436 49.8028 37.264 49.2188 37.112C48.6428 36.96 47.9388 36.884 47.1068 36.884C46.0028 36.884 45.0028 37.06 44.1068 37.412C43.2188 37.764 42.4588 38.268 41.8268 38.924C41.2028 39.58 40.7188 40.38 40.3748 41.324C40.0388 42.268 39.8708 43.328 39.8708 44.504C39.8708 45.696 40.0388 46.768 40.3748 47.72C40.7188 48.672 41.2108 49.48 41.8508 50.144C42.4988 50.808 43.2828 51.316 44.2028 51.668C45.1228 52.02 46.1588 52.196 47.3108 52.196C47.8148 52.196 48.2788 52.164 48.7028 52.1C49.1348 52.036 49.5428 51.948 49.9268 51.836C50.3188 51.716 50.6948 51.572 51.0547 51.404C51.4227 51.228 51.7948 51.032 52.1708 50.816V46.244H48.9188C48.8308 46.244 48.7548 46.216 48.6908 46.16C48.6348 46.104 48.6068 46.04 48.6068 45.968V45.296H53.2868ZM66.4609 46.832L63.0049 38.252C62.8849 37.972 62.7689 37.636 62.6569 37.244C62.6089 37.436 62.5569 37.62 62.5009 37.796C62.4449 37.964 62.3849 38.12 62.3209 38.264L58.8649 46.832H66.4609ZM70.2169 53H69.2689C69.1569 53 69.0649 52.972 68.9929 52.916C68.9209 52.852 68.8649 52.772 68.8249 52.676L66.8329 47.744H58.4929L56.5009 52.676C56.4689 52.764 56.4129 52.84 56.3329 52.904C56.2529 52.968 56.1569 53 56.0449 53H55.1089L62.0569 36.02H63.2689L70.2169 53ZM77.4234 45.176C78.1674 45.176 78.8354 45.072 79.4274 44.864C80.0194 44.656 80.5194 44.368 80.9274 44C81.3434 43.632 81.6594 43.2 81.8754 42.704C82.0994 42.2 82.2114 41.652 82.2114 41.06C82.2114 39.756 81.8114 38.752 81.0114 38.048C80.2114 37.344 79.0154 36.992 77.4234 36.992H74.2674V45.176H77.4234ZM77.4234 36.02C79.4154 36.02 80.9154 36.456 81.9234 37.328C82.9394 38.2 83.4474 39.444 83.4474 41.06C83.4474 41.804 83.3074 42.488 83.0274 43.112C82.7474 43.736 82.3474 44.276 81.8274 44.732C81.3074 45.18 80.6754 45.532 79.9314 45.788C79.1874 46.036 78.3514 46.16 77.4234 46.16H74.2674V53H73.0314V36.02H77.4234ZM101.99 44.504C101.99 45.816 101.794 47.008 101.402 48.08C101.01 49.144 100.458 50.056 99.7464 50.816C99.0344 51.568 98.1784 52.152 97.1784 52.568C96.1864 52.976 95.0904 53.18 93.8904 53.18C92.6904 53.18 91.5944 52.976 90.6024 52.568C89.6104 52.152 88.7584 51.568 88.0464 50.816C87.3344 50.056 86.7824 49.144 86.3904 48.08C85.9984 47.008 85.8024 45.816 85.8024 44.504C85.8024 43.2 85.9984 42.016 86.3904 40.952C86.7824 39.88 87.3344 38.968 88.0464 38.216C88.7584 37.456 89.6104 36.868 90.6024 36.452C91.5944 36.036 92.6904 35.828 93.8904 35.828C95.0904 35.828 96.1864 36.036 97.1784 36.452C98.1784 36.86 99.0344 37.444 99.7464 38.204C100.458 38.964 101.01 39.88 101.402 40.952C101.794 42.016 101.99 43.2 101.99 44.504ZM100.718 44.504C100.718 43.32 100.554 42.256 100.226 41.312C99.8984 40.368 99.4344 39.568 98.8344 38.912C98.2344 38.256 97.5144 37.756 96.6744 37.412C95.8344 37.06 94.9064 36.884 93.8904 36.884C92.8824 36.884 91.9584 37.06 91.1184 37.412C90.2784 37.756 89.5544 38.256 88.9464 38.912C88.3464 39.568 87.8784 40.368 87.5424 41.312C87.2144 42.256 87.0504 43.32 87.0504 44.504C87.0504 45.696 87.2144 46.764 87.5424 47.708C87.8784 48.644 88.3464 49.44 88.9464 50.096C89.5544 50.752 90.2784 51.252 91.1184 51.596C91.9584 51.94 92.8824 52.112 93.8904 52.112C94.9064 52.112 95.8344 51.94 96.6744 51.596C97.5144 51.252 98.2344 50.752 98.8344 50.096C99.4344 49.44 99.8984 48.644 100.226 47.708C100.554 46.764 100.718 45.696 100.718 44.504ZM110.067 44.408C110.819 44.408 111.491 44.32 112.083 44.144C112.683 43.96 113.187 43.7 113.595 43.364C114.011 43.028 114.327 42.624 114.543 42.152C114.759 41.68 114.867 41.148 114.867 40.556C114.867 39.348 114.471 38.452 113.679 37.868C112.895 37.284 111.747 36.992 110.235 36.992H107.127V44.408H110.067ZM117.603 53H116.547C116.411 53 116.295 52.98 116.199 52.94C116.111 52.892 116.027 52.808 115.947 52.688L110.499 45.8C110.435 45.712 110.367 45.636 110.295 45.572C110.231 45.508 110.155 45.46 110.067 45.428C109.987 45.388 109.887 45.36 109.767 45.344C109.655 45.328 109.515 45.32 109.347 45.32H107.127V53H105.891V36.02H110.235C112.187 36.02 113.647 36.4 114.615 37.16C115.591 37.912 116.079 39.02 116.079 40.484C116.079 41.132 115.967 41.724 115.743 42.26C115.519 42.796 115.195 43.268 114.771 43.676C114.355 44.076 113.847 44.404 113.247 44.66C112.655 44.916 111.987 45.088 111.243 45.176C111.435 45.296 111.607 45.456 111.759 45.656L117.603 53ZM130.669 51.98L130.645 53H120.469V36.02H130.645V37.04H121.705V43.904H129.145V44.9H121.705V51.98H130.669Z" fill="black"/>
</svg>
